# AST/ASF file generated using VICON BodyLanguage
# -----------------------------------------------
:version 1.10
:name VICON
:units
  mass 1.0
  length 0.45
  angle deg
:documentation
   .ast/.asf automatically generated from VICON data using
   VICON BodyBuilder and BodyLanguage model FoxedUp or BRILLIANT.MOD
:root
   order TX TY TZ RX RY RZ
   axis XYZ
   position 0 0 0  
   orientation 0 0 0 
:bonedata
  begin
     id 1 
     name lhipjoint
     direction 0.521452 -0.77106 0.36545 
     length 2.0933 
     axis 0 0 0  XYZ
  end
  begin
     id 2 
     name lfemur
     direction 0.34202 -0.939693 0  
     length 6.83441  
     axis 0 0 20  XYZ
    dof rx ry rz
    limits (-160.0 20.0)
           (-70.0 70.0)
           (-60.0 70.0)
  end
  begin
     id 3 
     name ltibia
     direction 0.34202 -0.939693 0   
     length 7.28749   
     axis 0 0 20   XYZ
    dof rx
    limits (-10.0 170.0)
  end
  begin
     id 4 
     name lfoot
     direction 0.100608 -0.276418 0.955757   
     length 1.52195   
     axis -90 7.62852e-016 20   XYZ
    dof rx rz
    limits (-45.0 90.0)
           (-70.0 20.0)
  end
  begin
     id 5 
     name ltoes
     direction 1.53558e-011 -4.21907e-011 1   
     length 0.770459   
     axis -90 7.62852e-016 20   XYZ
    dof rx
    limits (-90.0 20.0)
  end
  begin
     id 6 
     name rhipjoint
     direction -0.488071 -0.788702 0.373812   
     length 2.04648  
     axis 0 0 0  XYZ 
  end
  begin
     id 7 
     name rfemur
     direction -0.34202 -0.939693 0   
     length 6.92583   
     axis 0 0 -20   XYZ
    dof rx ry rz
    limits (-160.0 20.0)
           (-70.0 70.0)
           (-70.0 60.0)
  end
  begin
     id 8 
     name rtibia
     direction -0.34202 -0.939693 0   
     length 7.41043   
     axis 0 0 -20   XYZ
    dof rx
    limits (-10.0 170.0)
 end
 begin
     id 9 
     name rfoot
     direction -0.0784433 -0.215521 0.973343   
     length 1.67708  
     axis -90 -7.62852e-016 -20   XYZ
    dof rx rz
    limits (-45.0 90.0)
           (-20.0 70.0)
  end
  begin
     id 10 
     name rtoes
     direction -1.53551e-011 -4.21842e-011 1   
     length 0.849787   
     axis -90 -7.62852e-016 -20   XYZ
    dof rx
    limits (-90.0 20.0)
  end
  begin
     id 11 
     name lowerback
     direction -0.0122332 0.997575 -0.0685192   
     length 1.98724   
     axis 0 0 0   XYZ
    dof rx ry rz
    limits (-20.0 45.0)
           (-30.0 30.0)
           (-30.0 30.0)
  end
  begin
     id 12 
     name upperback
     direction 0.0182347 0.999724 -0.0148421   
     length 1.99029   
     axis 0 0 0   XYZ
    dof rx ry rz
    limits (-20.0 45.0)
           (-30.0 30.0)
           (-30.0 30.0)
  end
  begin
     id 13 
     name thorax
     direction 0.0242908 0.99956 0.0170184   
     length 1.99573   
     axis 0 0 0   XYZ
    dof rx ry rz
    limits (-20.0 45.0)
           (-30.0 30.0)
           (-30.0 30.0)
  end
  begin
     id 14 
     name lowerneck
     direction 0.0654488 0.985533 0.156338   
     length 1.4285   
     axis 0 0 0   XYZ
    dof rx ry rz
    limits (-20.0 45.0)
           (-30.0 30.0)
           (-30.0 30.0)
  end
  begin
     id 15 
     name upperneck
     direction -0.02953 0.998556 -0.0448842   
     length 1.44709   
     axis 0 0 0   XYZ
    dof rx ry rz
    limits (-20.0 45.0)
           (-30.0 30.0)
           (-30.0 30.0)
  end
  begin
     id 16
     name head
     direction -0.0155588 0.999386 -0.0314063  
     length 1.44689  
     axis 0 0 0   XYZ
    dof rx ry rz
    limits (-20.0 45.0)
           (-30.0 30.0)
           (-30.0 30.0)
  end
  begin
     id 17 
     name lclavicle
     direction 0.968229 0.236071 -0.0824755  
     length 3.60593  
     axis 0 0 0   XYZ
    dof ry rz
    limits (-20.0 10.0)
           (0.0 20.0)
  end
  begin
     id 18 
     name lhumerus
     direction 1 -4.48968e-011 7.8138e-029   
     length 5.06035   
     axis 180 -30 -90   XYZ
    dof rx ry rz
    limits (-60.0 90.0)
           (-90.0 90.0)
           (-90.0 90.0)
  end
  begin
     id 19
     name lradius
     direction 1 -4.48967e-011 9.02887e-028   
     length 3.1478   
     axis 180 -30 -90   XYZ
    dof rx
    limits (-10.0 170.0)
  end
  begin
     id 20
     name lwrist
     direction 1 -4.48961e-011 7.20928e-028   
     length 1.5739   
     axis -5.52449e-016 90 90   XYZ
    dof ry
    limits (-180.0 0.0)
 end
  begin
     id 21 
     name lhand
     direction 1 -4.48972e-011 1.44186e-027   
     length 0.606747   
     axis -9.20027e-016 90 90   XYZ
    dof rx rz
    limits (-90.0 90.0)
           (-45.0 45.0)
  end
  begin
     id 22 
     name lfingers
     direction 1 -4.48943e-011 2.88371e-027   
     length 0.489175   
     axis -1.84005e-015 90 90   XYZ
    dof rx
    limits (0.0 90.0)
  end
  begin
     id 23
     name lthumb
     direction 0.707107 -6.34917e-011 0.707107   
     length 0.70236   
     axis -90 45 2.85299e-015   XYZ
    dof rx rz
    limits (-45.0 45.0)
           (-45.0 45.0)
  end
  begin
     id 24 
     name rclavicle
     direction -0.978165 0.207816 0.0022268   
     length 3.35425  
     axis 0 0 0   XYZ 
    dof ry rz
    limits (-10.0 20.0)
           (-20.0 0.0)
  end
  begin
     id 25 
     name rhumerus
     direction -1 -4.48964e-011 -4.02159e-027  
     length 5.12273   
     axis 180 30 90   XYZ
    dof rx ry rz
    limits (-90.0 60.0)
           (-90.0 90.0)
           (-90.0 90.0)
  end
  begin
     id 26 
     name rradius
     direction -1 -4.48966e-011 1.62746e-027   
     length 3.422   
     axis 180 30 90   XYZ
    dof rx
    limits (-10.0 170.0)
  end
  begin
     id 27 
     name rwrist
     direction -1 -4.4896e-011 7.20928e-028   
     length 1.711   
     axis -5.52449e-016 -90 -90   XYZ
    dof ry
    limits (-180.0 0.0)
  end
  begin
     id 28
     name rhand
     direction -1 -4.48979e-011 1.44186e-027   
     length 0.704599   
     axis -9.20027e-016 -90 -90   XYZ
    dof rx rz
    limits (-90.0 90.0)
           (-45.0 45.0)
  end
  begin
     id 29
     name rfingers
     direction -1 -4.48962e-011 2.88371e-027   
     length 0.568066   
     axis -1.84005e-015 -90 -90   XYZ
    dof rx
    limits (0.0 90.0)
  end
  begin
     id 30
     name rthumb
     direction -0.707107 -6.34949e-011 0.707107   
     length 0.815633   
     axis -90 -45 -2.85299e-015   XYZ
    dof rx rz
    limits (-45.0 45.0)
           (-45.0 45.0)
  end
:hierarchy
  begin
    root lhipjoint rhipjoint lowerback
    lhipjoint lfemur
    lfemur ltibia
    ltibia lfoot
    lfoot ltoes
    rhipjoint rfemur
    rfemur rtibia
    rtibia rfoot
    rfoot rtoes
    lowerback upperback
    upperback thorax
    thorax lowerneck lclavicle rclavicle
    lowerneck upperneck
    upperneck head
    lclavicle lhumerus
    lhumerus lradius
    lradius lwrist
    lwrist lhand lthumb
    lhand lfingers
    rclavicle rhumerus
    rhumerus rradius
    rradius rwrist
    rwrist rhand rthumb
    rhand rfingers
  end

#!OML:ASF Z:\Project 1\Capture day 1\Session 1\Male1.ASF
:FULLY-SPECIFIED
:DEGREES
791
root 24.3417 16.546 -6.0061 -169.153 33.4422 -181.774
lowerback -0.131175 -3.18526 -0.702934
upperback 3.29168 -4.20838 2.28318
thorax 3.68661 -2.11694 2.60082
lowerneck -4.01741 -1.80683 1.90674
upperneck -7.26698 -2.31292 -1.59646
head -1.62551 -1.07852 -0.811591
rclavicle 6.04305e-014 -2.46493e-014
rhumerus 79.2282 -8.60073 -23.2063
rradius 36.2816
rwrist 18.7439
rhand -23.28 32.2532
rfingers 7.12502
rthumb 3.17266 2.29701
lclavicle 6.04305e-014 -2.46493e-014
lhumerus 85.8801 2.52421 40.7133
lradius 42.6992
lwrist -15.5067
lhand -31.4499 56.5359
lfingers 7.12502
lthumb -4.7176 -273.537
rfemur -20.5252 -3.5513 21.2716
rtibia 22.8006
rfoot -11.0966 -9.5484
rtoes -3.26788
lfemur 8.98416 -5.20308 -15.8691
ltibia 14.5491
lfoot 10.6423 2.72323
ltoes 42.8543
792
root 24.3387 16.5466 -6.00781 -169.019 33.4028 -181.769
lowerback -0.09483 -3.32338 -0.730905
upperback 3.24976 -4.39339 2.32716
thorax 3.63848 -2.21068 2.65783
lowerneck -4.51692 -1.85056 1.212
upperneck -8.06527 -2.26648 -0.751333
head -1.77187 -1.02833 -0.433797
rclavicle -3.77691e-014 -1.90833e-014
rhumerus 79.4714 -8.4856 -22.8035
rradius 36.2498
rwrist 18.9638
rhand -23.0398 32.5397
rfingers 7.12502
rthumb 3.4047 2.58719
lclavicle -3.77691e-014 -1.90833e-014
lhumerus 85.7589 2.82192 40.5325
lradius 42.6487
lwrist -15.6777
lhand -30.3282 48.6884
lfingers 7.12502
lthumb -3.6344 -281.363
rfemur -20.6186 -3.28392 21.2239
rtibia 22.7151
rfoot -10.9462 -9.80771
rtoes -2.91894
lfemur 9.05956 -5.14764 -15.813
ltibia 14.1087
lfoot 10.7275 2.52424
ltoes 42.6842
793
root 24.3365 16.5497 -6.0114 -168.868 33.3316 -181.714
lowerback -0.104998 -3.29471 -0.598774
upperback 3.20672 -4.35747 2.20173
thorax 3.57681 -2.18764 2.45726
lowerneck -5.05396 -1.60864 1.68473
upperneck -8.21901 -1.95679 -1.13518
head -1.73823 -0.869899 -0.637244
rclavicle -2.04748e-014 -1.63003e-014
rhumerus 79.1133 -8.51963 -22.3753
rradius 36.2577
rwrist 19.1999
rhand -22.8067 32.76
rfingers 7.12502
rthumb 3.62975 2.81118
lclavicle -2.04748e-014 -1.63003e-014
lhumerus 86.2293 2.66277 40.6685
lradius 42.4507
lwrist -15.8071
lhand -30.0072 48.4558
lfingers 7.12502
lthumb -3.32446 -281.59
rfemur -20.6898 -2.91503 21.1972
rtibia 22.6437
rfoot -10.9484 -9.99712
rtoes -0.0538349
lfemur 9.16867 -5.28952 -15.7383
ltibia 13.644
lfoot 10.6984 2.42822
ltoes 42.5969
794
root 24.3348 16.5522 -6.01636 -168.642 33.2387 -181.55
lowerback -0.0574511 -3.5034 -0.411728
upperback 3.13694 -4.64009 2.30976
thorax 3.48606 -2.32373 2.45924
lowerneck -5.59594 -1.56117 1.11024
upperneck -9.01825 -1.79855 -0.810637
head -1.89051 -0.751993 -0.443015
rclavicle 8.98507e-014 -6.87795e-014
rhumerus 79.3471 -8.22846 -21.777
rradius 36.534
rwrist 19.5208
rhand -22.4901 32.991
rfingers 7.12502
rthumb 3.93553 3.04758
lclavicle 8.98507e-014 -6.87795e-014
lhumerus 86.191 2.94377 41.0628
lradius 42.0827
lwrist -16.4396
lhand -31.3501 59.2178
lfingers 7.12502
lthumb -4.62125 -270.853
rfemur -20.7689 -2.76677 21.3241
rtibia 22.5677
rfoot -10.8242 -10.2115
rtoes -1.33524
lfemur 9.23454 -5.26407 -15.5126
ltibia 13.2484
lfoot 10.6803 2.29411
ltoes 42.5001
795
root 24.3359 16.5487 -6.01868 -168.423 33.1534 -181.344
lowerback 0.00358148 -3.66511 -0.35091
upperback 3.02547 -4.85844 2.4679
thorax 3.35618 -2.43239 2.58814
lowerneck -6.04522 -1.48973 1.24193
upperneck -9.56464 -1.69403 -1.30698
head -1.99859 -0.673672 -0.624169
rclavicle -7.99114e-014 -4.09496e-014
rhumerus 79.3307 -7.89674 -20.7898
rradius 36.9066
rwrist 19.7354
rhand -22.105 33.2024
rfingers 7.12502
rthumb 4.3074 3.26622
lclavicle -7.99114e-014 -4.09496e-014
lhumerus 86.178 3.01961 41.5792
lradius 41.7042
lwrist -17.1273
lhand -31.1503 56.1572
lfingers 7.12502
lthumb -4.42828 -273.909
rfemur -20.8346 -2.88893 21.5582
rtibia 22.4768
rfoot -10.9126 -10.0825
rtoes -0.151745
lfemur 9.26995 -4.98954 -15.1891
ltibia 12.9438
lfoot 10.7573 2.07837
ltoes 42.5435
796
root 24.3366 16.5468 -6.02107 -168.196 33.015 -181.052
lowerback 0.01469 -3.73974 -0.311873
upperback 2.9248 -4.96001 2.69071
thorax 3.26823 -2.48364 2.79653
lowerneck -6.49789 -1.58416 0.756938
upperneck -9.57574 -1.73952 -0.58674
head -1.91138 -0.686237 -0.319383
rclavicle 2.24627e-014 6.75868e-015
rhumerus 79.2536 -7.71624 -20.2035
rradius 37.0742
rwrist 19.7312
rhand -21.9428 33.2862
rfingers 7.12502
rthumb 4.46402 3.3532
lclavicle 2.24627e-014 6.75868e-015
lhumerus 86.2181 2.9282 41.7353
lradius 41.337
lwrist -17.371
lhand -31.363 58.0144
lfingers 7.12502
lthumb -4.63366 -272.056
rfemur -20.8294 -3.07672 21.8671
rtibia 22.3214
rfoot -10.8267 -9.93737
rtoes -1.2925
lfemur 9.23379 -4.78661 -14.8083
ltibia 12.828
lfoot 10.8448 1.88269
ltoes 42.4969
797
root 24.3342 16.5508 -6.02847 -168.088 32.8347 -180.981
lowerback 0.0974519 -3.78537 -0.19821
upperback 2.71066 -5.02288 2.71571
thorax 2.99555 -2.51233 2.77064
lowerneck -6.57393 -1.42535 0.175066
upperneck -10.0207 -1.4347 -0.123348
head -2.03138 -0.506418 -0.0774511
rclavicle -7.95139e-015 1.19271e-015
rhumerus 79.3029 -7.59566 -20.7457
rradius 36.8727
rwrist 19.1441
rhand -22.2657 33.0642
rfingers 7.12502
rthumb 4.15216 3.12495
lclavicle -7.95139e-015 1.19271e-015
lhumerus 86.288 2.51065 41.8386
lradius 40.9481
lwrist -17.736
lhand -31.6311 59.2791
lfingers 7.12502
lthumb -4.89253 -270.797
rfemur -20.7948 -3.38867 21.9716
rtibia 22.1346
rfoot -10.8764 -9.71287
rtoes 0.261315
lfemur 9.1756 -4.88241 -14.6949
ltibia 12.7921
lfoot 10.765 2.00254
ltoes 42.6746
